<?xml version="1.0" encoding="UTF-8"?>
<svg width="700pt" height="700pt" version="1.1" viewBox="0 0 700 700" xmlns="http://www.w3.org/2000/svg" xmlns:xlink="http://www.w3.org/1999/xlink">
 <defs>
  <symbol id="u" overflow="visible">
   <path d="m22.875-1.3594c-1.1797 0.60547-2.4062 1.0625-3.6875 1.375s-2.6172 0.46875-4 0.46875c-4.1484 0-7.4336-1.1562-9.8594-3.4688-2.418-2.3203-3.625-5.4688-3.625-9.4375 0-3.9766 1.207-7.125 3.625-9.4375 2.4258-2.3203 5.7109-3.4844 9.8594-3.4844 1.3828 0 2.7188 0.15625 4 0.46875s2.5078 0.77734 3.6875 1.3906v5.1406c-1.1875-0.80078-2.3594-1.3906-3.5156-1.7656-1.1562-0.38281-2.375-0.57812-3.6562-0.57812-2.293 0-4.0938 0.73438-5.4062 2.2031s-1.9688 3.4922-1.9688 6.0625c0 2.5742 0.65625 4.5938 1.9688 6.0625 1.3125 1.4609 3.1133 2.1875 5.4062 2.1875 1.2812 0 2.5-0.1875 3.6562-0.5625s2.3281-0.96875 3.5156-1.7812z"/>
  </symbol>
  <symbol id="c" overflow="visible">
   <path d="m16.734-13.594c-0.52344-0.23828-1.043-0.41406-1.5625-0.53125-0.51172-0.11328-1.0273-0.17188-1.5469-0.17188-1.543 0-2.7305 0.49219-3.5625 1.4688-0.82422 0.98047-1.2344 2.3867-1.2344 4.2188v8.6094h-5.9531v-18.672h5.9531v3.0625c0.76953-1.2188 1.6484-2.1094 2.6406-2.6719 1-0.5625 2.1914-0.84375 3.5781-0.84375 0.20703 0 0.42578 0.011719 0.65625 0.03125 0.22656 0.011719 0.56641 0.046875 1.0156 0.10938z"/>
  </symbol>
  <symbol id="a" overflow="visible">
   <path d="m21.5-9.3906v1.7031h-13.953c0.14453 1.4062 0.64844 2.4609 1.5156 3.1562 0.875 0.69922 2.0859 1.0469 3.6406 1.0469 1.2578 0 2.5469-0.17969 3.8594-0.54688 1.3125-0.375 2.6641-0.94141 4.0625-1.7031v4.5938c-1.418 0.54297-2.8359 0.94922-4.25 1.2188-1.4062 0.26953-2.8125 0.40625-4.2188 0.40625-3.3867 0-6.0156-0.85938-7.8906-2.5781-1.8672-1.7188-2.7969-4.125-2.7969-7.2188 0-3.0508 0.91406-5.4453 2.75-7.1875 1.8438-1.75 4.375-2.625 7.5938-2.625 2.9375 0 5.2852 0.88672 7.0469 2.6562 1.7578 1.7734 2.6406 4.1328 2.6406 7.0781zm-6.125-1.9844c0-1.125-0.33594-2.0352-1-2.7344-0.65625-0.69531-1.5234-1.0469-2.5938-1.0469-1.1562 0-2.0938 0.32812-2.8125 0.98438-0.71875 0.64844-1.168 1.5781-1.3438 2.7969z"/>
  </symbol>
  <symbol id="j" overflow="visible">
   <path d="m11.234-8.4062c-1.2422 0-2.1797 0.21484-2.8125 0.64062-0.625 0.41797-0.9375 1.0391-0.9375 1.8594 0 0.76172 0.25 1.3555 0.75 1.7812 0.50781 0.42969 1.2188 0.64062 2.125 0.64062 1.1133 0 2.0547-0.39844 2.8281-1.2031 0.76953-0.8125 1.1562-1.8203 1.1562-3.0312v-0.6875zm9.125-2.25v10.656h-6.0156v-2.7656c-0.80469 1.1367-1.7031 1.9648-2.7031 2.4844-1 0.50781-2.2188 0.76562-3.6562 0.76562-1.9375 0-3.5117-0.5625-4.7188-1.6875-1.1992-1.1328-1.7969-2.5977-1.7969-4.3906 0-2.1953 0.75-3.8047 2.25-4.8281 1.5078-1.0195 3.875-1.5312 7.0938-1.5312h3.5312v-0.46875c0-0.94531-0.375-1.6406-1.125-2.0781-0.74219-0.4375-1.9023-0.65625-3.4844-0.65625-1.2812 0-2.4766 0.13281-3.5781 0.39062-1.0938 0.25-2.1172 0.63281-3.0625 1.1406v-4.5469c1.2812-0.3125 2.5664-0.54688 3.8594-0.70312 1.2891-0.16406 2.5781-0.25 3.8594-0.25 3.375 0 5.8047 0.66797 7.2969 2 1.5 1.3242 2.25 3.4805 2.25 6.4688z"/>
  </symbol>
  <symbol id="b" overflow="visible">
   <path d="m9.3906-23.969v5.2969h6.1406v4.2656h-6.1406v7.9219c0 0.86719 0.17188 1.4531 0.51562 1.7656 0.34375 0.30469 1.0234 0.45312 2.0469 0.45312h3.0625v4.2656h-5.1094c-2.3555 0-4.0273-0.48828-5.0156-1.4688-0.98047-0.98828-1.4688-2.6602-1.4688-5.0156v-7.9219h-2.9688v-4.2656h2.9688v-5.2969z"/>
  </symbol>
  <symbol id="i" overflow="visible">
   <path d="m15.562-15.938v-10h6.0156v25.938h-6.0156v-2.7031c-0.8125 1.1055-1.7148 1.9141-2.7031 2.4219-0.99219 0.50781-2.1367 0.76562-3.4375 0.76562-2.3047 0-4.1953-0.91016-5.6719-2.7344-1.4805-1.832-2.2188-4.1875-2.2188-7.0625 0-2.8828 0.73828-5.2383 2.2188-7.0625 1.4766-1.832 3.3672-2.75 5.6719-2.75 1.2891 0 2.4297 0.26172 3.4219 0.78125 1 0.51172 1.9062 1.3125 2.7188 2.4062zm-3.9219 12.094c1.2695 0 2.2383-0.46875 2.9062-1.4062 0.67578-0.9375 1.0156-2.2891 1.0156-4.0625 0-1.7812-0.33984-3.1328-1.0156-4.0625-0.66797-0.9375-1.6367-1.4062-2.9062-1.4062-1.2734 0-2.2461 0.46875-2.9219 1.4062-0.66797 0.92969-1 2.2812-1 4.0625 0 1.7734 0.33203 3.125 1 4.0625 0.67578 0.9375 1.6484 1.4062 2.9219 1.4062z"/>
  </symbol>
  <symbol id="h" overflow="visible">
   <path d="m12.797-3.8438c1.2812 0 2.2539-0.46875 2.9219-1.4062 0.67578-0.9375 1.0156-2.2891 1.0156-4.0625 0-1.7812-0.33984-3.1328-1.0156-4.0625-0.66797-0.9375-1.6406-1.4062-2.9219-1.4062-1.2734 0-2.25 0.46875-2.9375 1.4062s-1.0312 2.293-1.0312 4.0625c0 1.7617 0.34375 3.1172 1.0312 4.0625 0.6875 0.9375 1.6641 1.4062 2.9375 1.4062zm-3.9688-12.094c0.82031-1.0938 1.7344-1.8945 2.7344-2.4062 1-0.51953 2.1484-0.78125 3.4531-0.78125 2.3008 0 4.1914 0.91797 5.6719 2.75 1.4766 1.8242 2.2188 4.1797 2.2188 7.0625 0 2.875-0.74219 5.2305-2.2188 7.0625-1.4805 1.8242-3.3711 2.7344-5.6719 2.7344-1.3047 0-2.4531-0.25781-3.4531-0.76562-1-0.51953-1.9141-1.3281-2.7344-2.4219v2.7031h-5.9531v-25.938h5.9531z"/>
  </symbol>
  <symbol id="g" overflow="visible">
   <path d="m0.42188-18.672h5.9688l5.0156 12.672 4.2656-12.672h5.9688l-7.8594 20.438c-0.78125 2.082-1.6992 3.5352-2.75 4.3594-1.0547 0.83203-2.4375 1.25-4.1562 1.25h-3.4531v-3.9219h1.8594c1.0078 0 1.7422-0.16406 2.2031-0.48438 0.46875-0.32422 0.82812-0.90234 1.0781-1.7344l0.17188-0.51562z"/>
  </symbol>
  <symbol id="f" overflow="visible">
   <path d="m3.1406-24.891h6.4062v9.0938l9.25-9.0938h7.4531l-11.984 11.781 13.219 13.109h-8.0312l-9.9062-9.7969v9.7969h-6.4062z"/>
  </symbol>
  <symbol id="t" overflow="visible">
   <path d="m0.51562-18.672h5.9688l4.6562 12.906 4.625-12.906h5.9844l-7.3438 18.672h-6.5469z"/>
  </symbol>
  <symbol id="s" overflow="visible">
   <path d="m2.875-18.672h5.9531v18.672h-5.9531zm0-7.2656h5.9531v4.8594h-5.9531z"/>
  </symbol>
  <symbol id="e" overflow="visible">
   <path d="m21.641-11.375v11.375h-6v-8.7031c0-1.6133-0.039063-2.7227-0.10938-3.3281-0.074219-0.61328-0.19922-1.0664-0.375-1.3594-0.24219-0.38281-0.55859-0.6875-0.95312-0.90625-0.39844-0.21875-0.85156-0.32812-1.3594-0.32812-1.25 0-2.2344 0.48438-2.9531 1.4531-0.71094 0.96094-1.0625 2.2891-1.0625 3.9844v9.1875h-5.9531v-18.672h5.9531v2.7344c0.90625-1.0938 1.8633-1.8945 2.875-2.4062 1.0078-0.51953 2.125-0.78125 3.3438-0.78125 2.1562 0 3.7891 0.66406 4.9062 1.9844 1.125 1.3242 1.6875 3.2461 1.6875 5.7656z"/>
  </symbol>
  <symbol id="r" overflow="visible">
   <path d="m15.156-25.938v3.9219h-3.2969c-0.85547 0-1.4492 0.15234-1.7812 0.45312-0.33594 0.30469-0.5 0.83594-0.5 1.5938v1.2969h5.1094v4.2656h-5.1094v14.406h-5.9531v-14.406h-2.9688v-4.2656h2.9688v-1.2969c0-2.0312 0.5625-3.5312 1.6875-4.5 1.1328-0.97656 2.8906-1.4688 5.2656-1.4688z"/>
  </symbol>
  <symbol id="d" overflow="visible">
   <path d="m11.75-14.859c-1.3242 0-2.3359 0.48047-3.0312 1.4375-0.6875 0.94922-1.0312 2.3203-1.0312 4.1094 0 1.7812 0.34375 3.1523 1.0312 4.1094 0.69531 0.94922 1.707 1.4219 3.0312 1.4219 1.3008 0 2.2969-0.47266 2.9844-1.4219 0.6875-0.95703 1.0312-2.3281 1.0312-4.1094 0-1.7891-0.34375-3.1602-1.0312-4.1094-0.6875-0.95703-1.6836-1.4375-2.9844-1.4375zm0-4.2656c3.207 0 5.7109 0.87109 7.5156 2.6094 1.8125 1.7305 2.7188 4.1328 2.7188 7.2031 0 3.0625-0.90625 5.4648-2.7188 7.2031-1.8047 1.7305-4.3086 2.5938-7.5156 2.5938-3.2188 0-5.7422-0.86328-7.5625-2.5938-1.8125-1.7383-2.7188-4.1406-2.7188-7.2031 0-3.0703 0.90625-5.4727 2.7188-7.2031 1.8203-1.7383 4.3438-2.6094 7.5625-2.6094z"/>
  </symbol>
  <symbol id="q" overflow="visible">
   <path d="m20.172-15.562c0.75-1.1562 1.6445-2.0352 2.6875-2.6406 1.0391-0.61328 2.1797-0.92188 3.4219-0.92188 2.1445 0 3.7812 0.66406 4.9062 1.9844 1.125 1.3242 1.6875 3.2461 1.6875 5.7656v11.375h-6v-9.7344c0.007812-0.14453 0.015625-0.29688 0.015625-0.45312 0.007813-0.15625 0.015625-0.37891 0.015625-0.67188 0-1.3203-0.19922-2.2812-0.59375-2.875-0.38672-0.59375-1.0117-0.89062-1.875-0.89062-1.1367 0-2.0117 0.46875-2.625 1.4062-0.61719 0.9375-0.93359 2.2891-0.95312 4.0469v9.1719h-6v-9.7344c0-2.0703-0.18359-3.4062-0.54688-4-0.35547-0.59375-0.98438-0.89062-1.8906-0.89062-1.1484 0-2.0312 0.47656-2.6562 1.4219-0.625 0.9375-0.9375 2.2773-0.9375 4.0156v9.1875h-6v-18.672h6v2.7344c0.73828-1.0508 1.582-1.8438 2.5312-2.375 0.94531-0.53906 1.9922-0.8125 3.1406-0.8125 1.2891 0 2.4297 0.3125 3.4219 0.9375 0.98828 0.625 1.7383 1.5 2.25 2.625z"/>
  </symbol>
  <symbol id="p" overflow="visible">
   <path d="m21.641-11.375v11.375h-6v-8.6719c0-1.6328-0.039063-2.7539-0.10938-3.3594-0.074219-0.61328-0.19922-1.0664-0.375-1.3594-0.24219-0.38281-0.55859-0.6875-0.95312-0.90625-0.39844-0.21875-0.85156-0.32812-1.3594-0.32812-1.25 0-2.2344 0.48438-2.9531 1.4531-0.71094 0.96094-1.0625 2.2891-1.0625 3.9844v9.1875h-5.9531v-25.938h5.9531v10c0.90625-1.0938 1.8633-1.8945 2.875-2.4062 1.0078-0.51953 2.125-0.78125 3.3438-0.78125 2.1562 0 3.7891 0.66406 4.9062 1.9844 1.125 1.3242 1.6875 3.2461 1.6875 5.7656z"/>
  </symbol>
  <symbol id="o" overflow="visible">
   <path d="m3.1406-24.891h7.1562l9.0625 17.078v-17.078h6.0781v24.891h-7.1719l-9.0469-17.078v17.078h-6.0781z"/>
  </symbol>
  <symbol id="n" overflow="visible">
   <path d="m2.6719-7.2656v-11.406h6v1.875c0 1.0117-0.007813 2.2812-0.015625 3.8125-0.011719 1.5234-0.015625 2.5391-0.015625 3.0469 0 1.5 0.035156 2.5859 0.10938 3.25 0.082031 0.65625 0.21875 1.1367 0.40625 1.4375 0.23828 0.38672 0.55469 0.6875 0.95312 0.90625 0.39453 0.21094 0.84766 0.3125 1.3594 0.3125 1.25 0 2.2266-0.47656 2.9375-1.4375 0.70703-0.95703 1.0625-2.2852 1.0625-3.9844v-9.2188h5.9688v18.672h-5.9688v-2.7031c-0.89844 1.0938-1.8516 1.9023-2.8594 2.4219-1 0.50781-2.1094 0.76562-3.3281 0.76562-2.1562 0-3.7969-0.66016-4.9219-1.9844-1.125-1.3203-1.6875-3.2422-1.6875-5.7656z"/>
  </symbol>
  <symbol id="m" overflow="visible">
   <path d="m3.1406-24.891h10.641c3.1641 0 5.5977 0.70312 7.2969 2.1094 1.6953 1.4062 2.5469 3.4141 2.5469 6.0156 0 2.6055-0.85156 4.6094-2.5469 6.0156-1.6992 1.4062-4.1328 2.1094-7.2969 2.1094h-4.2344v8.6406h-6.4062zm6.4062 4.6562v6.9531h3.5625c1.2383 0 2.1953-0.30078 2.875-0.90625 0.67578-0.61328 1.0156-1.4727 1.0156-2.5781 0-1.1133-0.33984-1.9688-1.0156-2.5625-0.67969-0.60156-1.6367-0.90625-2.875-0.90625z"/>
  </symbol>
  <symbol id="l" overflow="visible">
   <path d="m2.875-18.672h5.9531v18.344c0 2.5-0.60156 4.4062-1.7969 5.7188-1.1992 1.3203-2.9375 1.9844-5.2188 1.9844h-2.9531v-3.9219h1.0469c1.125 0 1.8984-0.25781 2.3281-0.76562 0.42578-0.51172 0.64062-1.5156 0.64062-3.0156zm0-7.2656h5.9531v4.8594h-5.9531z"/>
  </symbol>
  <symbol id="k" overflow="visible">
   <path d="m17.953-18.094v4.875c-0.8125-0.55078-1.6328-0.96094-2.4531-1.2344-0.8125-0.26953-1.6562-0.40625-2.5312-0.40625-1.668 0-2.9648 0.49219-3.8906 1.4688-0.92969 0.96875-1.3906 2.3281-1.3906 4.0781 0 1.7422 0.46094 3.1016 1.3906 4.0781 0.92578 0.96875 2.2227 1.4531 3.8906 1.4531 0.9375 0 1.8203-0.14062 2.6562-0.42188 0.84375-0.28125 1.6172-0.69141 2.3281-1.2344v4.8906c-0.9375 0.34375-1.8867 0.59766-2.8438 0.76562-0.96094 0.17578-1.9219 0.26562-2.8906 0.26562-3.3672 0-6-0.86328-7.9062-2.5938-1.8984-1.7266-2.8438-4.1289-2.8438-7.2031 0-3.082 0.94531-5.4883 2.8438-7.2188 1.9062-1.7266 4.5391-2.5938 7.9062-2.5938 0.97656 0 1.9414 0.089844 2.8906 0.26562 0.94531 0.16797 1.8945 0.42188 2.8438 0.76562z"/>
  </symbol>
 </defs>
 <path transform="matrix(6.8293 0 0 6.8293 83.659 13.659)" d="m2.3716e-4 39c0-21.539 17.456-39 39-39 21.539 0 39 17.456 39 39 0 21.539-17.456 39-39 39-21.539 0-39-17.456-39-39zm17.154 13.523s13.745 16.127 24.694 13.541c8.6267-2.0374 20.013-13.105 20.013-13.105 2.1364-1.8996 1.9333-4.8024-0.41641-6.4423l-8.7377-6.0997s-7.9123 7.6949-12.664 7.7882c-6.4703 0.12698-12.871-7.7882-12.871-7.7882l-9.4492 6.6625c-1.887 1.331-2.1392 3.7665-0.56798 5.4436zm22.376-10.589c5.0037 0 12.903-7.0023 12.903-15.64 0-8.6381-5.1015-15.641-12.903-15.641-7.8025 0-12.904 7.0028-12.904 15.641 0 8.6381 7.8997 15.64 12.904 15.64z" fill="none" stroke="#000" stroke-width="2.5"/>
 <g>
  <use x="70" y="662.4375" xlink:href="#u"/>
  <use x="95.058594" y="662.4375" xlink:href="#c"/>
  <use x="111.898438" y="662.4375" xlink:href="#a"/>
  <use x="135.058594" y="662.4375" xlink:href="#j"/>
  <use x="158.101562" y="662.4375" xlink:href="#b"/>
  <use x="174.421875" y="662.4375" xlink:href="#a"/>
  <use x="197.582031" y="662.4375" xlink:href="#i"/>
  <use x="233.914063" y="662.4375" xlink:href="#h"/>
  <use x="258.355469" y="662.4375" xlink:href="#g"/>
  <use x="292.5" y="662.4375" xlink:href="#f"/>
  <use x="318.960938" y="662.4375" xlink:href="#a"/>
  <use x="342.121094" y="662.4375" xlink:href="#t"/>
  <use x="364.378906" y="662.4375" xlink:href="#s"/>
  <use x="376.082031" y="662.4375" xlink:href="#e"/>
  <use x="70" y="696.585938" xlink:href="#r"/>
  <use x="84.855469" y="696.585938" xlink:href="#c"/>
  <use x="101.695312" y="696.585938" xlink:href="#d"/>
  <use x="125.15625" y="696.585938" xlink:href="#q"/>
  <use x="172.621094" y="696.585938" xlink:href="#b"/>
  <use x="188.945312" y="696.585938" xlink:href="#p"/>
  <use x="213.253906" y="696.585938" xlink:href="#a"/>
  <use x="248.300781" y="696.585938" xlink:href="#o"/>
  <use x="276.878906" y="696.585938" xlink:href="#d"/>
  <use x="300.335938" y="696.585938" xlink:href="#n"/>
  <use x="324.648438" y="696.585938" xlink:href="#e"/>
  <use x="360.84375" y="696.585938" xlink:href="#m"/>
  <use x="385.871094" y="696.585938" xlink:href="#c"/>
  <use x="402.710938" y="696.585938" xlink:href="#d"/>
  <use x="426.167969" y="696.585938" xlink:href="#l"/>
  <use x="437.875" y="696.585938" xlink:href="#a"/>
  <use x="461.03125" y="696.585938" xlink:href="#k"/>
  <use x="481.273438" y="696.585938" xlink:href="#b"/>
 </g>
</svg>
